<!DOCTYPE svg PUBLIC "-//W3C//DTD SVG 1.1//EN" "http://www.w3.org/Graphics/SVG/1.1/DTD/svg11.dtd">

<!-- Uploaded to: SVG Repo, www.svgrepo.com, Transformed by: SVG Repo Mixer Tools -->
<svg fill="#ED8A19" width="800px" height="800px" viewBox="0 0 32 32" xmlns="http://www.w3.org/2000/svg" stroke="#ED8A19">

<g id="SVGRepo_bgCarrier" stroke-width="0"/>

<g id="SVGRepo_tracerCarrier" stroke-linecap="round" stroke-linejoin="round"/>

<g id="SVGRepo_iconCarrier"> <title/> <g data-name="Layer 8" id="Layer_8"> <path d="M30.52,27.48,24,21a1,1,0,0,0-1.42,0l-.1.11L20.45,19A11,11,0,1,0,19,20.45l2.05,2.05-.3.29a1,1,0,0,0,0,1.42l6.5,6.5a1,1,0,0,0,1.42,0l1.81-1.81A1,1,0,0,0,30.52,27.48ZM16.94,17A6.89,6.89,0,0,1,12,19a7,7,0,1,1,7-7A6.89,6.89,0,0,1,16.94,17Z"/> </g> </g>

</svg>